# Blender v2.93.5 OBJ File: '3dMap.blend'
# www.blender.org
o celling_S_立方体.021
v -23.999996 16.500000 -37.124939
v -23.999996 17.625000 -37.124939
v -13.500005 16.500000 -37.124939
v -13.500005 17.625000 -37.124939
v -23.999996 16.500000 52.874939
v -23.999996 17.625000 52.874939
v -13.500005 16.500000 52.874939
v -13.500005 17.625000 52.874939
vn 0.0000 0.0000 -1.0000
vn 1.0000 0.0000 0.0000
vn 0.0000 0.0000 1.0000
vn -1.0000 0.0000 0.0000
vn 0.0000 -1.0000 0.0000
vn 0.0000 1.0000 0.0000
s off
f 2//1 3//1 1//1
f 4//2 7//2 3//2
f 8//3 5//3 7//3
f 6//4 1//4 5//4
f 7//5 1//5 3//5
f 4//6 6//6 8//6
f 2//1 4//1 3//1
f 4//2 8//2 7//2
f 8//3 6//3 5//3
f 6//4 2//4 1//4
f 7//5 5//5 1//5
f 4//6 2//6 6//6
o under_S_5F_specialUnderfloor
v -23.250000 16.125000 -36.825001
v -23.250000 16.500000 -36.825001
v -21.375000 16.125000 -36.825001
v -21.375000 16.500000 -36.825001
v -23.250000 16.125000 52.575001
v -23.250000 16.500000 52.575001
v -21.375000 16.125000 52.575001
v -21.375000 16.500000 52.575001
v -21.375000 16.125000 21.000000
v -21.375000 16.500000 21.000000
v -23.250000 16.125000 21.000000
v -23.250000 16.500000 21.000000
v -21.375000 16.125000 15.750000
v -23.250000 16.500000 15.750000
v -21.375000 16.500000 15.750000
v -23.250000 16.125000 15.750000
v -21.375000 16.125000 -21.000000
v -23.250000 16.500000 -21.000000
v -21.375000 16.500000 -21.000000
v -23.250000 16.125000 -21.000000
v -21.375000 16.500000 -15.750000
v -23.250000 16.125000 -15.750000
v -21.375000 16.125000 -15.750000
v -23.250000 16.500000 -15.750000
v -18.750000 16.125000 -15.750000
v -18.750000 16.125000 -21.000000
v -18.750000 16.500000 -21.000000
v -18.750000 16.500000 -15.750000
v -18.750000 16.500000 15.750000
v -18.750000 16.500000 21.000000
v -18.750000 16.125000 21.000000
v -18.750000 16.125000 15.750000
vn 0.0000 0.0000 -1.0000
vn 1.0000 0.0000 0.0000
vn 0.0000 0.0000 1.0000
vn -1.0000 0.0000 0.0000
vn 0.0000 -1.0000 0.0000
vn 0.0000 1.0000 0.0000
s off
f 10//7 11//7 9//7
f 18//8 15//8 17//8
f 16//9 13//9 15//9
f 26//10 9//10 28//10
f 15//11 19//11 17//11
f 12//12 26//12 27//12
f 18//12 14//12 16//12
f 17//11 24//11 21//11
f 14//10 19//10 13//10
f 18//12 37//12 23//12
f 29//8 21//8 31//8
f 21//11 30//11 31//11
f 23//12 20//12 18//12
f 20//10 24//10 19//10
f 25//11 9//11 11//11
f 12//8 25//8 11//8
f 27//12 32//12 29//12
f 32//10 28//10 30//10
f 22//10 30//10 24//10
f 29//12 22//12 23//12
f 31//11 28//11 25//11
f 27//7 34//7 25//7
f 35//8 33//8 34//8
f 29//12 35//12 27//12
f 31//9 36//9 29//9
f 25//11 33//11 31//11
f 37//8 39//8 40//8
f 23//7 40//7 21//7
f 21//11 39//11 17//11
f 17//9 38//9 18//9
f 10//7 12//7 11//7
f 18//8 16//8 15//8
f 16//9 14//9 13//9
f 26//10 10//10 9//10
f 15//11 13//11 19//11
f 12//12 10//12 26//12
f 18//12 20//12 14//12
f 17//11 19//11 24//11
f 14//10 20//10 19//10
f 18//12 38//12 37//12
f 29//8 23//8 21//8
f 21//11 24//11 30//11
f 23//12 22//12 20//12
f 20//10 22//10 24//10
f 25//11 28//11 9//11
f 12//8 27//8 25//8
f 27//12 26//12 32//12
f 32//10 26//10 28//10
f 22//10 32//10 30//10
f 29//12 32//12 22//12
f 31//11 30//11 28//11
f 27//7 35//7 34//7
f 35//8 36//8 33//8
f 29//12 36//12 35//12
f 31//9 33//9 36//9
f 25//11 34//11 33//11
f 37//8 38//8 39//8
f 23//7 37//7 40//7
f 21//11 40//11 39//11
f 17//9 39//9 38//9
